<?xml version="1.0" encoding="utf-8"?>
<!-- Generator: Adobe Illustrator 27.1.1, SVG Export Plug-In . SVG Version: 6.00 Build 0)  -->
<svg version="1.1" id="Layer_1" xmlns="http://www.w3.org/2000/svg" xmlns:xlink="http://www.w3.org/1999/xlink" x="0px" y="0px"
	 viewBox="0 0 512 512" style="enable-background:new 0 0 512 512;" xml:space="preserve">
<style type="text/css">
	.st0{fill:#FFFFFF;}
</style>
<path class="st0" d="M232,344v-64h-64c-13.3,0-24-10.7-24-24c0-13.3,10.7-24,24-24h64v-64c0-13.3,10.7-24,24-24
	c13.3,0,24,10.7,24,24v64h64c13.3,0,24,10.7,24,24c0,13.3-10.7,24-24,24h-64v64c0,13.3-10.7,24-24,24C242.7,368,232,357.3,232,344z
	 M512,256c0,141.4-114.6,256-256,256S0,397.4,0,256S114.6,0,256,0S512,114.6,512,256z M256,48C141.1,48,48,141.1,48,256
	s93.1,208,208,208s208-93.1,208-208S370.9,48,256,48z"/>
</svg>
