<?xml version="1.0" encoding="utf-8"?>
<!-- Generator: Adobe Illustrator 27.1.1, SVG Export Plug-In . SVG Version: 6.00 Build 0)  -->
<svg version="1.1" id="Wordmark_00000039097891454453620760000012538039542013217175_"
	 xmlns="http://www.w3.org/2000/svg" xmlns:xlink="http://www.w3.org/1999/xlink" x="0px" y="0px" viewBox="0 0 6962.4 1686.6"
	 style="enable-background:new 0 0 6962.4 1686.6;" xml:space="preserve">
<style type="text/css">
	.st0{fill:#FFFFFF;}
	.st1{fill:url(#SVGID_1_);}
	.st2{fill:url(#SVGID_00000085945629132415102300000002609979537411271053_);}
</style>
<g>
	<path class="st0" d="M1217.6,621.7c0,26.2,13.7,47.6,41,64.1c27.4,16.5,67.2,32.2,119.7,47c39.9,9.1,74.6,18.8,104.3,29.1
		c29.6,10.3,61,25.4,94,45.3c33.1,19.9,58.4,46.2,76.1,78.6c17.7,32.5,25.9,70.4,24.8,113.7c0,82-31.9,146.4-95.7,193.2
		c-63.8,46.7-143,70.1-237.6,70.1c-84.4,0-156.7-17.7-217.1-53c-60.4-35.3-104.3-84.3-131.6-147l159-92.3
		c28.5,82.1,91.7,123.1,189.8,123.1c96.8,0,145.3-31.9,145.3-95.7c0-46.7-54.1-83.2-162.4-109.4c-41-10.3-75.5-20.5-103.4-30.8
		c-27.9-10.3-58.7-25.1-92.3-44.5c-33.6-19.4-59.3-45-76.9-76.9c-17.7-31.9-25.9-68.9-24.8-111.1c0-78.6,29.6-141.9,88.9-189.7
		c60.4-47.9,135-71.8,223.9-71.8c70.7,0,133.6,15.7,188.9,47c55.3,31.4,97.7,75,127.4,130.8l-155.6,87.2
		c-28.5-65-82.1-97.5-160.7-97.5c-36.5,0-66.4,8-89.7,23.9C1229.2,571,1217.6,593.2,1217.6,621.7z"/>
</g>
<path class="st0" d="M2567.2,495.2c-84.4-87.8-184.6-131.6-300.9-131.6c-129.9,0-229.7,48.4-299.2,145.3V385.8h-184.6v1196.7h184.6
	v-463.3c70.7,95.7,170.4,143.6,299.2,143.6c117.4,0,217.7-43.3,300.9-129.9c83.2-86.6,124.8-193.2,124.8-319.7
	C2692,687.8,2650.4,581.8,2567.2,495.2z M2430.5,1009.8c-51.3,51.3-115.7,76.9-193.2,76.9c-77.5,0-141.9-25.6-193.2-76.9
	c-51.3-53.5-76.9-119.1-76.9-196.6c0-78.6,25.6-143.6,76.9-194.9c51.3-52.4,115.7-78.6,193.2-78.6c77.5,0,141.9,26.2,193.2,78.6
	c51.3,51.3,76.9,116.3,76.9,194.9C2507.4,891.8,2481.7,957.4,2430.5,1009.8z"/>
<g>
	<path class="st0" d="M4434.7,385.8v177.8h-234.5v410.3c0,35.3,8,60.7,23.9,76.1c15.9,15.4,39.6,23.9,70.9,25.6
		c31.3,1.7,70.4,1.4,117.1-0.9v165.8c-141.3,17.1-242.8,4.8-304.3-36.8c-61.5-41.6-92.3-118.2-92.3-229.9V563.6h-157.3V385.8h157.3
		V142.3l184.6,4.2v239.3H4434.7z"/>
</g>
<g>
	<path class="st0" d="M4730.3,621.7c0,26.2,13.7,47.6,41,64.1c27.4,16.5,67.2,32.2,119.7,47c39.9,9.1,74.6,18.8,104.3,29.1
		c29.6,10.3,60.9,25.4,94,45.3c33,19.9,58.4,46.2,76.1,78.6c17.7,32.5,25.9,70.4,24.8,113.7c0,82-31.9,146.4-95.7,193.2
		c-63.8,46.7-143,70.1-237.6,70.1c-84.4,0-156.7-17.7-217.1-53c-60.4-35.3-104.3-84.3-131.6-147l159-92.3
		c28.5,82.1,91.7,123.1,189.8,123.1c96.9,0,145.3-31.9,145.3-95.7c0-46.7-54.1-83.2-162.4-109.4c-41-10.3-75.5-20.5-103.4-30.8
		c-27.9-10.3-58.7-25.1-92.3-44.5c-33.6-19.4-59.3-45-76.9-76.9c-17.7-31.9-25.9-68.9-24.8-111.1c0-78.6,29.6-141.9,88.9-189.7
		c60.4-47.9,135-71.8,223.9-71.8c70.7,0,133.6,15.7,188.9,47c55.3,31.4,97.7,75,127.4,130.8l-155.6,87.2
		c-28.5-65-82.1-97.5-160.7-97.5c-36.5,0-66.4,8-89.7,23.9C4742,571,4730.3,593.2,4730.3,621.7z"/>
</g>
<g>
	<path class="st0" d="M5613.7,1006.4l218.8-620.5h196.6l-328.2,882.1c-82,221.1-221.1,325.9-417.1,314.5v-172.7
		c57,3.4,103.1-8.5,138.5-35.9c35.3-27.4,65-71.2,88.9-131.6l8.5-17.1l-362.4-839.4H5359L5613.7,1006.4z"/>
</g>
<linearGradient id="SVGID_1_" gradientUnits="userSpaceOnUse" x1="2855.3562" y1="1360.7848" x2="3465.606" y2="636.4697">
	<stop  offset="0" style="stop-color:#E40682"/>
	<stop  offset="1" style="stop-color:#FCB421"/>
</linearGradient>
<path class="st1" d="M3787,588.8c-31.9-67-73.8-124.1-124.7-169.7c-50.8-45.6-108.3-80.3-170.8-103.1
	c-62.4-22.8-125.1-34.3-186.4-34.3c-61.2,0-124,11.5-186.4,34.3c-62.6,22.8-120,57.5-170.8,103.1c-50.8,45.6-92.8,102.7-124.7,169.7
	c-32,67.2-48.2,146.1-48.2,234.5c0,118.4,43.7,240.2,129.8,362c85.5,120.8,217.8,249,393.4,381l6.8,5.1l6.8-5.1
	c175.6-132,308-260.2,393.4-381c86.2-121.8,129.8-243.6,129.8-362C3835.2,734.9,3819,656,3787,588.8z M3697.3,823.3
	c0,83.1-33.6,174.3-99.8,271.2c-65.8,96.1-164.1,197.8-292.3,302.1c-128.3-104.4-226.6-206-292.3-302.1
	c-66.3-96.9-99.9-188.1-99.9-271.2c0-73.4,13.5-136.2,40-186.9c26.7-50.9,60-93.1,99-125.3c39-32.2,82-55.7,127.8-70
	c46.1-14.3,88.2-21.6,125.4-21.6c37.1,0,79.3,7.3,125.4,21.6c45.8,14.2,88.8,37.8,127.8,70c39,32.2,72.3,74.3,99,125.3
	C3683.9,687,3697.3,749.9,3697.3,823.3z"/>
<linearGradient id="SVGID_00000060735380674816796600000017462499414715619508_" gradientUnits="userSpaceOnUse" x1="3172.9976" y1="1068.5312" x2="3372.6121" y2="680.709">
	<stop  offset="0" style="stop-color:#E40682"/>
	<stop  offset="1" style="stop-color:#FCB421"/>
</linearGradient>
<path style="fill:url(#SVGID_00000060735380674816796600000017462499414715619508_);" d="M3305.2,946.2c37.1,0,68.8-13.1,95.1-39.4
	c26.3-26.3,39.4-58,39.4-95.1c0-37.1-13.1-68.8-39.4-95.1c-26.3-26.3-58-39.4-95.1-39.4s-68.8,13.1-95.1,39.4
	c-26.3,26.3-39.4,58-39.4,95.1c0,37.1,13.1,68.8,39.4,95.1C3236.3,933.1,3268,946.2,3305.2,946.2z"/>
</svg>
